<svg xmlns="http://www.w3.org/2000/svg"
     fill="rgb(231, 224, 214)"
     xmlns:xlink="http://www.w3.org/1999/xlink"
     version="1.1"
     viewBox="-87.93101887924203 72 579.8068658792421 72"
     style="width: 100%; height: 100%; z-index: 5;">
<g>
<g fill="rgb(231, 224, 214)"
   fill-rule="nonzero"
   transform="translate(-87.93101887924203 72) scale(2.06896533580514)">
<svg xmlns="http://www.w3.org/2000/svg"
     fill="rgb(231, 224, 214)"
     width="86"
     height="34.80000305175781"
     viewBox="7 32.599998474121094 86 34.80000305175781">
<switch>
<g>
<path d="M9.2 67l-.2-.1h-.6c0-.3 0-.5 5.5-4.9.3-.2.5-.4.6-.5l1.7-1.7c3-2.9 4.5-4.4 4.9-4.6 1.3-.6 2-1.1 2.2-1.4.3-.6 2.9-2.2 3.9-2.8.6-.5 1.4-.6 2.1-.2l2.9 1.4c.2.1 1.8.5 2.3 1 .3.3 1.6.8 2.3 1l-.3.8c-.3-.1-2.1-.7-2.6-1.2-.3-.2-1.3-.6-2-.8l-3-1.4c-.4-.2-.9-.1-1.3.2-1.6 1-3.5 2.2-3.7 2.5-.3.7-1.5 1.3-2.5 1.8-.4.2-3.2 3-4.7 4.5-1.1 1-1.6 1.6-1.8 1.7-.1.1-.3.2-.6.5-3.1 2.4-4.8 3.9-5.1 4.2z" />
<path d="M88 67.2c-5.1-5.3-9.8-7.3-11.7-7.3-.6 0-1.4.2-2.1.5-1.5.5-3.1 1-4.2-.3-1.3-1.6-3.6-2.9-4.6-3.4-1-.5-1.8-2-1.3-3.5.4-1.2.4-3.5 0-4.9-.4-1.4-3.6-5.8-4.6-6.4-.8-.5-1.9-2.5-3.2-4.8-.4-.7-.8-1.4-.9-1.5-.3-.3-1.7-.8-2.7-.7-.4 0-.4.1-.6.3-.2.2-.4.6-.9.9-2.2 1.4-1.4 2.9-1 3.9.4.8 0 1.9-.6 2.6-.8 1-1.9 1.6-2.8 1.4-.9-.2-1.7-.1-2.1.3-.3.2-.4.5-.5.8-.2 1.1-.7 3.3-1.5 4.4-.7 1-10.6 10.8-11.1 11.2l-.8-.7c3.6-3.5 10.4-10.4 11-11.2.7-.9 1.2-2.9 1.4-4 .1-.6.4-1 .8-1.4.7-.5 1.6-.6 2.8-.4 1 .2 1.8-.8 2-1.1.5-.7.7-1.4.6-1.6-.5-1-1.6-3.2 1.2-5 .4-.3.6-.5.7-.7.3-.4.5-.7 1.3-.7 1.1 0 2.8.5 3.3 1 .2.2.4.6 1 1.7.8 1.4 2.3 4.1 2.9 4.5 1.2.7 4.5 5.3 5 6.9.5 1.6.5 4.1 0 5.5-.4 1 .1 2.1.8 2.4.1.1 3.1 1.5 4.9 3.6.7.8 1.7.6 3.3 0 .8-.3 1.7-.5 2.4-.5 1.8 0 6.6 1.7 12.3 7.6l-.5.6z" />
<path d="M48.5 62.6l-.7-.5c.1-.1 6.2-7.7 6.3-10.8.1-2.5 1.2-5.3 2-7.3.3-.6.5-1.2.6-1.6.4-1.1-.3-2-.7-2.5-.1-.2-.2-.3-.3-.4l-.1-.3c-.2-.4-.5-1-.9-2.1-.4-.9-1.8-2.1-2.3-2.4l.5-.7c.1.1 2 1.4 2.6 2.8.4 1 .7 1.6.9 2l.1.3s.1.2.2.3c.5.6 1.4 1.7.9 3.3-.1.4-.4 1-.6 1.6-.8 1.9-1.9 4.6-1.9 7-.2 3.4-6.3 11-6.6 11.3z" />
<path d="M65.6 67l-.9-.1c.3-2.3-1-4.2-2.3-6.2-.7-1-1.4-2.1-1.9-3.2-1.5-3.2-5.8-5.3-5.9-5.3l.4-.8c.2.1 4.7 2.2 6.3 5.8.5 1.1 1.2 2.1 1.8 3.1 1.5 2 2.8 4 2.5 6.7zM52.2 66.8c-.6-3.6-3.3-4.1-4.2-4-.9.1-2.2-.6-3.8-2.3-.6-.5-1.2-1.2-1.5-1.5-.1-.1-.4-.2-1.6-.1-.6.1-3 2.4-4.9 4.6l-.7-.6c1-1.1 4.2-4.8 5.5-4.9 1.2-.1 2-.1 2.4.4.2.3.8 1 1.4 1.5 2 2 2.9 2.1 3.1 2 1.1-.1 4.5.4 5.2 4.7l-.9.2z" />
<path d="M7 66.5h86v.9H7zM33.9 42.6c-2.8 0-5.1-2.2-5.1-5s2.3-5 5.1-5 5.1 2.2 5.1 5c.1 2.8-2.2 5-5.1 5zm0-9.1c-2.3 0-4.3 1.9-4.3 4.1s1.9 4.1 4.3 4.1 4.3-1.9 4.3-4.1-1.9-4.1-4.3-4.1z" />
</g>
</switch>
</svg>
</g>
<g fill="rgb(231, 224, 214)"
   transform="translate(106.832 128.412) scale(1)">
<path fill-rule="nonzero"
      d="M3.816000 0L17.928000 0L17.928000-37.656000L3.816000-37.656000ZM10.872000-40.464000C15.192000-40.464000 18.504000-43.488000 18.504000-47.592000C18.504000-51.768000 15.192000-54.792000 10.872000-54.792000C6.480000-54.792000 3.168000-51.768000 3.168000-47.592000C3.168000-43.488000 6.480000-40.464000 10.872000-40.464000ZM24.665985 0L38.849985 0L38.849985-20.808000C38.849985-25.272000 40.937985-27.360000 44.465985-27.360000C47.849985-27.360000 49.217985-25.416000 49.217985-21.600000L49.217985 0L63.401985 0L63.401985-24.768000C63.401985-34.128000 58.433985-38.664000 51.305985-38.664000C44.969985-38.664000 40.937985-35.568000 38.849985-31.608000L38.849985-37.656000L24.665985-37.656000ZM85.115969 0.864000C88.211969 0.864000 90.875969 0.288000 92.603969-0.216000L92.603969-10.872000C91.379969-10.440000 90.371969-10.296000 89.075969-10.296000C86.771969-10.296000 85.403969-11.376000 85.403969-13.968000L85.403969-28.152000L92.603969-28.152000L92.603969-37.656000L85.403969-37.656000L85.403969-45.360000L71.219969-45.360000L71.219969-37.656000L66.827969-37.656000L66.827969-28.152000L71.219969-28.152000L71.219969-12.600000C71.219969-3.168000 76.259969 0.864000 85.115969 0.864000ZM116.405954 0.936000C128.357954 0.936000 134.909954-4.104000 136.061954-12.744000L122.813954-12.744000C122.381954-10.584000 120.869954-8.712000 116.909954-8.712000C112.877954-8.712000 110.213954-11.160000 109.853954-15.696000L135.989954-15.696000L135.989954-19.152000C135.989954-32.688000 126.989954-38.736000 116.405954-38.736000C104.885954-38.736000 95.525954-31.176000 95.525954-18.936000L95.525954-18.360000C95.525954-5.904000 104.381954 0.936000 116.405954 0.936000ZM109.925954-23.112000C110.501954-27.360000 112.949954-29.592000 116.405954-29.592000C120.221954-29.592000 122.165954-27.144000 122.309954-23.112000ZM140.351939 0L154.535939 0L154.535939-17.352000C154.535939-22.752000 158.783939-25.344000 166.631939-24.912000L166.631939-38.160000C161.015939-38.232000 156.911939-35.856000 154.535939-30.024000L154.535939-37.656000L140.351939-37.656000ZM190.361923 0.936000C202.313923 0.936000 208.865923-4.104000 210.017923-12.744000L196.769923-12.744000C196.337923-10.584000 194.825923-8.712000 190.865923-8.712000C186.833923-8.712000 184.169923-11.160000 183.809923-15.696000L209.945923-15.696000L209.945923-19.152000C209.945923-32.688000 200.945923-38.736000 190.361923-38.736000C178.841923-38.736000 169.481923-31.176000 169.481923-18.936000L169.481923-18.360000C169.481923-5.904000 178.337923 0.936000 190.361923 0.936000ZM183.881923-23.112000C184.457923-27.360000 186.905923-29.592000 190.361923-29.592000C194.177923-29.592000 196.121923-27.144000 196.265923-23.112000ZM229.715908 0.936000C240.371908 0.936000 247.427908-3.024000 247.427908-12.312000C247.427908-20.448000 242.387908-23.040000 231.515908-24.336000C227.339908-24.768000 225.611908-25.488000 225.611908-27.216000C225.611908-28.656000 226.763908-29.808000 229.355908-29.808000C231.947908-29.808000 233.171908-28.512000 233.603908-26.280000L246.347908-26.280000C245.483908-35.496000 238.931908-38.736000 229.139908-38.736000C219.923908-38.736000 212.363908-34.632000 212.363908-25.992000C212.363908-17.928000 216.827908-15.192000 226.979908-14.040000C232.019908-13.392000 233.603908-12.528000 233.603908-10.872000C233.603908-9.288000 232.379908-8.208000 229.643908-8.208000C226.403908-8.208000 225.395908-9.648000 224.963908-12.096000L212.003908-12.096000C212.219908-3.600000 218.699908 0.936000 229.715908 0.936000ZM267.125893 0.864000C270.221893 0.864000 272.885893 0.288000 274.613893-0.216000L274.613893-10.872000C273.389893-10.440000 272.381893-10.296000 271.085893-10.296000C268.781893-10.296000 267.413893-11.376000 267.413893-13.968000L267.413893-28.152000L274.613893-28.152000L274.613893-37.656000L267.413893-37.656000L267.413893-45.360000L253.229893-45.360000L253.229893-37.656000L248.837893-37.656000L248.837893-28.152000L253.229893-28.152000L253.229893-12.600000C253.229893-3.168000 258.269893 0.864000 267.125893 0.864000ZM279.839877 0L293.951877 0L293.951877-37.656000L279.839877-37.656000ZM286.895877-40.464000C291.215877-40.464000 294.527877-43.488000 294.527877-47.592000C294.527877-51.768000 291.215877-54.792000 286.895877-54.792000C282.503877-54.792000 279.191877-51.768000 279.191877-47.592000C279.191877-43.488000 282.503877-40.464000 286.895877-40.464000ZM300.689862 0L314.873862 0L314.873862-20.808000C314.873862-25.272000 316.961862-27.360000 320.489862-27.360000C323.873862-27.360000 325.241862-25.416000 325.241862-21.600000L325.241862 0L339.425862 0L339.425862-24.768000C339.425862-34.128000 334.457862-38.664000 327.329862-38.664000C320.993862-38.664000 316.961862-35.568000 314.873862-31.608000L314.873862-37.656000L300.689862-37.656000ZM363.587847 13.968000C377.627847 13.968000 385.043847 7.992000 385.043847-3.240000L385.043847-37.656000L370.859847-37.656000L370.859847-32.472000C368.771847-36.288000 365.243847-38.736000 359.339847-38.736000C350.771847-38.736000 343.643847-31.968000 343.643847-20.664000L343.643847-20.088000C343.643847-8.424000 350.843847-2.232000 359.411847-2.232000C365.027847-2.232000 368.987847-5.256000 370.859847-8.856000L370.859847-3.024000C370.859847 1.008000 369.059847 4.176000 363.659847 4.176000C359.267847 4.176000 357.971847 2.016000 357.467847-0.288000L343.427847-0.288000C344.435847 8.640000 350.555847 13.968000 363.587847 13.968000ZM364.667847-12.312000C360.347847-12.312000 358.043847-15.336000 358.043847-19.944000L358.043847-20.520000C358.043847-25.272000 360.347847-28.224000 364.667847-28.224000C368.915847-28.224000 371.291847-25.200000 371.291847-20.592000L371.291847-20.088000C371.291847-15.336000 368.843847-12.312000 364.667847-12.312000Z" />
</g>
</g>
</svg>